Coordinates
version=1
nRows=14
nColumns=36
inDegrees=yes

Units are S.I. units (second, meters, Newtons, ...)
If the header above contains a line with 'inDegrees', this indicates whether rotational values are in degrees (yes) or radians (no).

endheader
time	pelvis_tilt	pelvis_list	pelvis_rotation	pelvis_tx	pelvis_ty	pelvis_tz	hip_flexion_r	hip_adduction_r	hip_rotation_r	knee_angle_r	knee_angle_r_beta	ankle_angle_r	subtalar_angle_r	mtp_angle_r	hip_flexion_l	hip_adduction_l	hip_rotation_l	knee_angle_l	knee_angle_l_beta	ankle_angle_l	subtalar_angle_l	mtp_angle_l	lumbar_extension	lumbar_bending	lumbar_rotation	arm_flex_r	arm_add_r	arm_rot_r	elbow_flex_r	pro_sup_r	arm_flex_l	arm_add_l	arm_rot_l	elbow_flex_l	pro_sup_l
      0.00000000	     -2.62017984	      3.40719459	     93.97435823	     -0.23819411	      0.93286517	      1.04338579	     23.50899184	     -6.58846165	    -18.51614354	     16.43338770	      0.28681672	     -1.87102510	      1.88081295	     -7.45303949	    -15.19967590	      0.79368767	     -7.68981289	     25.07745135	      0.43768409	      4.83987047	      8.67579996	     -7.45303949	    -16.94813073	      0.50295808	     -7.89329237	     -7.61967649	     -2.49278770	    -38.51482577	     49.79539221	    102.04027789	     18.42607796	     -9.32009150	    -11.89357602	     49.71272241	     87.13781790
      0.01000000	     -2.29128585	      3.46385250	     93.66575383	     -0.23643871	      0.93167459	      1.02857036	     23.65708414	     -6.03862505	    -16.82122726	     18.07737891	      0.31550978	     -3.18478659	      0.81107364	     -7.45622918	    -15.17472314	      0.35125008	     -7.45105312	     26.81588837	      0.46802554	      2.67184376	      6.75333556	     -7.45622918	    -16.67177216	      0.87918729	     -7.38267359	     -7.79588936	     -2.75801630	    -38.43968763	     48.92990042	     99.88006751	     18.00569717	     -8.88788345	    -12.09946088	     50.03292991	     85.28637445
      0.02000000	     -1.65575382	      3.51426272	     92.92125966	     -0.23386494	      0.93102399	      1.01425383	     23.80151564	     -4.96855109	    -15.03324986	     19.74824256	      0.34467185	     -4.53576857	      0.17474038	     -7.46169991	    -14.91073575	     -0.41033635	     -7.95155222	     28.92240166	      0.50479114	      0.36272068	      5.74536159	     -7.46169991	    -16.53569451	      1.46635727	     -6.32070701	     -7.91502890	     -3.12448101	    -38.31782430	     48.18302399	     99.55829285	     17.68265380	     -8.19073345	    -12.71439717	     50.27074928	     84.32591750
      0.03000000	     -0.80253487	      3.57155822	     92.47659744	     -0.23092676	      0.93115201	      0.99976040	     23.69033191	     -3.68574711	    -13.63169981	     21.13173262	      0.36881831	     -5.02257148	     -1.22376290	     -7.47517590	    -14.36177332	     -1.54970306	     -8.14826260	     31.39537921	      0.54795274	     -2.84970469	      3.81472896	     -7.47517590	    -16.36876154	      2.27122124	     -5.61306123	     -7.58975541	     -3.16759879	    -39.07925068	     46.85021910	    103.69574543	     17.19001739	     -7.66912422	    -13.83260806	     50.44028919	     88.47574193
      0.04000000	      0.06875057	      3.93411569	     91.98018466	     -0.22806370	      0.93200399	      0.98518707	     23.19316762	     -2.35711395	    -12.43918279	     22.50160984	      0.39272718	     -4.87597953	     -3.43119723	     -7.47827471	    -14.04963620	     -2.68889273	     -8.38234892	     33.88699072	      0.59143956	     -6.60730150	      2.13004074	     -7.47827471	    -16.59116100	      3.11933380	     -4.83271163	     -7.42620004	     -3.41486028	    -38.92797626	     45.83951893	    102.19657559	     16.64854652	     -7.22711347	    -14.27424972	     50.73274610	     86.65083603
      0.05000000	      0.71839207	      4.10541562	     91.72369606	     -0.22595897	      0.93263739	      0.97092783	     22.82430117	     -1.36941410	    -11.51916351	     23.85700825	      0.41638334	     -4.73375750	     -6.51799620	     -7.48605036	    -13.25975451	     -3.52789895	     -8.05548231	     36.57098464	      0.63828409	    -11.30195946	      0.12449698	     -7.48605036	    -16.59609023	      3.81862690	     -4.37088847	     -7.09584700	     -3.57672963	    -39.29127750	     44.72849326	    104.78060736	     16.05471108	     -6.78863397	    -15.11824813	     50.88691792	     89.39132734
      0.06000000	      1.52151656	      4.45656320	     91.59051362	     -0.22351273	      0.93357029	      0.95650578	     22.13418366	     -0.17307251	    -10.79977372	     25.12722249	      0.43855276	     -3.38913314	     -7.41261122	     -7.48683718	    -12.52640410	     -4.72586002	     -7.83438009	     39.30438025	      0.68599085	    -15.52747533	     -0.71231925	     -7.48683718	    -16.77042352	      4.54793265	     -3.78411977	     -7.05868197	     -3.79836163	    -38.95647798	     43.82598123	    103.45278598	     15.58973195	     -6.51077379	    -15.19409514	     50.91599752	     88.60476611
      0.07000000	      2.34112253	      4.70438246	     91.26037189	     -0.22152138	      0.93456866	      0.94308811	     21.27257182	      1.22931118	     -9.52137437	     25.60694171	      0.44692544	     -2.97920321	     -8.97185216	     -7.48774010	    -11.44966295	     -5.66985734	     -7.38159847	     42.30863237	      0.73842494	    -19.01026080	     -3.34296021	     -7.48774010	    -17.00691873	      5.41822819	     -3.33107205	     -6.70877917	     -4.14213581	    -38.51407018	     43.12159653	    103.09390499	     14.91321647	     -6.07704686	    -15.88807772	     51.23660168	     88.25248878
      0.08000000	      2.79018145	      4.67520831	     91.08282261	     -0.22011277	      0.93521621	      0.92983885	     20.66703209	      1.98039985	     -8.89847890	     26.09206245	      0.45539240	     -2.06479373	    -10.33881005	     -7.48855071	     -9.92119518	     -6.14142612	     -6.68496029	     45.37450282	      0.79193447	    -22.12207812	     -5.85429505	     -7.48855071	    -16.94309926	      5.85059223	     -2.82295726	     -6.54630878	     -4.40354244	    -38.25623395	     42.50925140	    103.06598578	     14.31542309	     -5.68440660	    -16.23788487	     51.40819759	     88.07988940
      0.09000000	      3.29307131	      4.87690262	     90.98172235	     -0.21895227	      0.93663055	      0.91690205	     19.58417484	      2.73768962	     -8.55160090	     26.08505793	      0.45527015	     -0.78897041	    -10.53905055	     -7.48876312	     -8.57141591	     -6.78297618	     -6.25917842	     48.33894001	      0.84367366	    -25.37566083	     -8.52978211	     -7.48876312	    -17.16924844	      6.41719043	     -2.42819964	     -6.17961851	     -4.68530349	    -38.03232222	     41.93473683	    103.43402666	     13.91156622	     -5.33403094	    -16.41844694	     51.13102453	     88.17143966
      0.10000000	      3.59850925	      4.89090581	     91.01475231	     -0.21808238	      0.93824729	      0.90442174	     18.63177122	      3.23841260	     -8.28813303	     25.95160142	      0.45294089	      0.01318823	    -10.69955847	     -7.48894976	     -6.83263509	     -7.14183311	     -5.60191360	     51.33833275	      0.89602294	    -28.49432240	    -11.76151426	     -7.48894976	    -17.23518547	      6.74836306	     -2.14398665	     -5.79072005	     -4.85502743	    -37.83827535	     41.38912982	    104.04643790	     13.53008476	     -4.84461587	    -16.85337515	     50.91346815	     88.38444694
      0.11000000	      3.74545001	      4.96498808	     91.10463218	     -0.21730855	      0.94040723	      0.89219190	     17.48236959	      3.53338762	     -8.19697301	     25.53147936	      0.44560838	      0.80753287	    -10.80672947	     -7.48906629	     -5.11423028	     -7.36324141	     -5.00214598	     54.13250820	      0.94479050	    -31.01096796	    -14.58272204	     -7.48906629	    -17.45059887	      6.89426217	     -1.93585933	     -5.30264133	     -5.00613814	    -37.66966529	     40.88225178	    104.83634668	     13.13108058	     -4.65028024	    -17.10122191	     50.65704949	     88.73484298
      0.12000000	      3.75255481	      5.17979743	     91.19525827	     -0.21653574	      0.94298248	      0.88039616	     16.10626637	      3.70080157	     -8.10578521	     24.93664370	      0.43522654	      1.68119385	    -10.68656322	     -7.48910639	     -3.54903681	     -7.37918007	     -4.47799348	     56.58581027	      0.98760870	    -31.87391070	    -16.42642829	     -7.48910639	    -17.80293524	      6.83500676	     -1.74075799	     -4.72068394	     -5.09738476	    -37.44452423	     40.34541477	    105.26452352	     12.91557055	     -4.49165007	    -17.24099637	     50.14584749	     88.90482617
      0.13000000	      3.62126113	      4.65198375	     91.67611158	     -0.21641833	      0.94473040	      0.86911369	     15.62069711	      3.49430951	     -8.65573199	     24.46287945	      0.42695779	      2.32772036	    -10.05398624	     -7.48958701	     -0.97487664	     -7.34992631	     -3.94097352	     59.04952832	      1.03060869	    -31.24132982	    -19.39575349	     -7.48958701	    -17.34521706	      6.74137522	     -2.02987117	     -4.09656467	     -5.09091780	    -37.33121945	     39.76858161	    105.64843035	     12.56985339	     -4.20591449	    -17.82285032	     49.59522358	     89.02471426
